%TF.GenerationSoftware,KiCad,Pcbnew,9.0.0*%
%TF.CreationDate,2025-03-25T11:32:13+05:30*%
%TF.ProjectId,solarpannel_project,736f6c61-7270-4616-9e6e-656c5f70726f,rev?*%
%TF.SameCoordinates,Original*%
%TF.FileFunction,Legend,Top*%
%TF.FilePolarity,Positive*%
%FSLAX46Y46*%
G04 Gerber Fmt 4.6, Leading zero omitted, Abs format (unit mm)*
G04 Created by KiCad (PCBNEW 9.0.0) date 2025-03-25 11:32:13*
%MOMM*%
%LPD*%
G01*
G04 APERTURE LIST*
%ADD10C,0.150000*%
%ADD11C,0.120000*%
G04 APERTURE END LIST*
D10*
X125653809Y-78954819D02*
X125177619Y-78954819D01*
X125177619Y-78954819D02*
X125177619Y-77954819D01*
X125987143Y-78954819D02*
X125987143Y-78288152D01*
X125987143Y-77954819D02*
X125939524Y-78002438D01*
X125939524Y-78002438D02*
X125987143Y-78050057D01*
X125987143Y-78050057D02*
X126034762Y-78002438D01*
X126034762Y-78002438D02*
X125987143Y-77954819D01*
X125987143Y-77954819D02*
X125987143Y-78050057D01*
X126320476Y-78288152D02*
X126701428Y-78288152D01*
X126463333Y-77954819D02*
X126463333Y-78811961D01*
X126463333Y-78811961D02*
X126510952Y-78907200D01*
X126510952Y-78907200D02*
X126606190Y-78954819D01*
X126606190Y-78954819D02*
X126701428Y-78954819D01*
X127034762Y-78954819D02*
X127034762Y-77954819D01*
X127463333Y-78954819D02*
X127463333Y-78431009D01*
X127463333Y-78431009D02*
X127415714Y-78335771D01*
X127415714Y-78335771D02*
X127320476Y-78288152D01*
X127320476Y-78288152D02*
X127177619Y-78288152D01*
X127177619Y-78288152D02*
X127082381Y-78335771D01*
X127082381Y-78335771D02*
X127034762Y-78383390D01*
X127939524Y-78954819D02*
X127939524Y-78288152D01*
X127939524Y-77954819D02*
X127891905Y-78002438D01*
X127891905Y-78002438D02*
X127939524Y-78050057D01*
X127939524Y-78050057D02*
X127987143Y-78002438D01*
X127987143Y-78002438D02*
X127939524Y-77954819D01*
X127939524Y-77954819D02*
X127939524Y-78050057D01*
X128844285Y-78288152D02*
X128844285Y-78954819D01*
X128415714Y-78288152D02*
X128415714Y-78811961D01*
X128415714Y-78811961D02*
X128463333Y-78907200D01*
X128463333Y-78907200D02*
X128558571Y-78954819D01*
X128558571Y-78954819D02*
X128701428Y-78954819D01*
X128701428Y-78954819D02*
X128796666Y-78907200D01*
X128796666Y-78907200D02*
X128844285Y-78859580D01*
X129320476Y-78954819D02*
X129320476Y-78288152D01*
X129320476Y-78383390D02*
X129368095Y-78335771D01*
X129368095Y-78335771D02*
X129463333Y-78288152D01*
X129463333Y-78288152D02*
X129606190Y-78288152D01*
X129606190Y-78288152D02*
X129701428Y-78335771D01*
X129701428Y-78335771D02*
X129749047Y-78431009D01*
X129749047Y-78431009D02*
X129749047Y-78954819D01*
X129749047Y-78431009D02*
X129796666Y-78335771D01*
X129796666Y-78335771D02*
X129891904Y-78288152D01*
X129891904Y-78288152D02*
X130034761Y-78288152D01*
X130034761Y-78288152D02*
X130130000Y-78335771D01*
X130130000Y-78335771D02*
X130177619Y-78431009D01*
X130177619Y-78431009D02*
X130177619Y-78954819D01*
X130653809Y-78573866D02*
X131415714Y-78573866D01*
X131891904Y-78954819D02*
X131891904Y-78288152D01*
X131891904Y-77954819D02*
X131844285Y-78002438D01*
X131844285Y-78002438D02*
X131891904Y-78050057D01*
X131891904Y-78050057D02*
X131939523Y-78002438D01*
X131939523Y-78002438D02*
X131891904Y-77954819D01*
X131891904Y-77954819D02*
X131891904Y-78050057D01*
X132510951Y-78954819D02*
X132415713Y-78907200D01*
X132415713Y-78907200D02*
X132368094Y-78859580D01*
X132368094Y-78859580D02*
X132320475Y-78764342D01*
X132320475Y-78764342D02*
X132320475Y-78478628D01*
X132320475Y-78478628D02*
X132368094Y-78383390D01*
X132368094Y-78383390D02*
X132415713Y-78335771D01*
X132415713Y-78335771D02*
X132510951Y-78288152D01*
X132510951Y-78288152D02*
X132653808Y-78288152D01*
X132653808Y-78288152D02*
X132749046Y-78335771D01*
X132749046Y-78335771D02*
X132796665Y-78383390D01*
X132796665Y-78383390D02*
X132844284Y-78478628D01*
X132844284Y-78478628D02*
X132844284Y-78764342D01*
X132844284Y-78764342D02*
X132796665Y-78859580D01*
X132796665Y-78859580D02*
X132749046Y-78907200D01*
X132749046Y-78907200D02*
X132653808Y-78954819D01*
X132653808Y-78954819D02*
X132510951Y-78954819D01*
X133272856Y-78288152D02*
X133272856Y-78954819D01*
X133272856Y-78383390D02*
X133320475Y-78335771D01*
X133320475Y-78335771D02*
X133415713Y-78288152D01*
X133415713Y-78288152D02*
X133558570Y-78288152D01*
X133558570Y-78288152D02*
X133653808Y-78335771D01*
X133653808Y-78335771D02*
X133701427Y-78431009D01*
X133701427Y-78431009D02*
X133701427Y-78954819D01*
X134177618Y-78573866D02*
X134939523Y-78573866D01*
X135415713Y-78954819D02*
X135415713Y-77954819D01*
X135415713Y-78335771D02*
X135510951Y-78288152D01*
X135510951Y-78288152D02*
X135701427Y-78288152D01*
X135701427Y-78288152D02*
X135796665Y-78335771D01*
X135796665Y-78335771D02*
X135844284Y-78383390D01*
X135844284Y-78383390D02*
X135891903Y-78478628D01*
X135891903Y-78478628D02*
X135891903Y-78764342D01*
X135891903Y-78764342D02*
X135844284Y-78859580D01*
X135844284Y-78859580D02*
X135796665Y-78907200D01*
X135796665Y-78907200D02*
X135701427Y-78954819D01*
X135701427Y-78954819D02*
X135510951Y-78954819D01*
X135510951Y-78954819D02*
X135415713Y-78907200D01*
X136749046Y-78954819D02*
X136749046Y-78431009D01*
X136749046Y-78431009D02*
X136701427Y-78335771D01*
X136701427Y-78335771D02*
X136606189Y-78288152D01*
X136606189Y-78288152D02*
X136415713Y-78288152D01*
X136415713Y-78288152D02*
X136320475Y-78335771D01*
X136749046Y-78907200D02*
X136653808Y-78954819D01*
X136653808Y-78954819D02*
X136415713Y-78954819D01*
X136415713Y-78954819D02*
X136320475Y-78907200D01*
X136320475Y-78907200D02*
X136272856Y-78811961D01*
X136272856Y-78811961D02*
X136272856Y-78716723D01*
X136272856Y-78716723D02*
X136320475Y-78621485D01*
X136320475Y-78621485D02*
X136415713Y-78573866D01*
X136415713Y-78573866D02*
X136653808Y-78573866D01*
X136653808Y-78573866D02*
X136749046Y-78526247D01*
X137082380Y-78288152D02*
X137463332Y-78288152D01*
X137225237Y-77954819D02*
X137225237Y-78811961D01*
X137225237Y-78811961D02*
X137272856Y-78907200D01*
X137272856Y-78907200D02*
X137368094Y-78954819D01*
X137368094Y-78954819D02*
X137463332Y-78954819D01*
X137653809Y-78288152D02*
X138034761Y-78288152D01*
X137796666Y-77954819D02*
X137796666Y-78811961D01*
X137796666Y-78811961D02*
X137844285Y-78907200D01*
X137844285Y-78907200D02*
X137939523Y-78954819D01*
X137939523Y-78954819D02*
X138034761Y-78954819D01*
X138749047Y-78907200D02*
X138653809Y-78954819D01*
X138653809Y-78954819D02*
X138463333Y-78954819D01*
X138463333Y-78954819D02*
X138368095Y-78907200D01*
X138368095Y-78907200D02*
X138320476Y-78811961D01*
X138320476Y-78811961D02*
X138320476Y-78431009D01*
X138320476Y-78431009D02*
X138368095Y-78335771D01*
X138368095Y-78335771D02*
X138463333Y-78288152D01*
X138463333Y-78288152D02*
X138653809Y-78288152D01*
X138653809Y-78288152D02*
X138749047Y-78335771D01*
X138749047Y-78335771D02*
X138796666Y-78431009D01*
X138796666Y-78431009D02*
X138796666Y-78526247D01*
X138796666Y-78526247D02*
X138320476Y-78621485D01*
X139225238Y-78954819D02*
X139225238Y-78288152D01*
X139225238Y-78478628D02*
X139272857Y-78383390D01*
X139272857Y-78383390D02*
X139320476Y-78335771D01*
X139320476Y-78335771D02*
X139415714Y-78288152D01*
X139415714Y-78288152D02*
X139510952Y-78288152D01*
X139749048Y-78288152D02*
X139987143Y-78954819D01*
X140225238Y-78288152D02*
X139987143Y-78954819D01*
X139987143Y-78954819D02*
X139891905Y-79192914D01*
X139891905Y-79192914D02*
X139844286Y-79240533D01*
X139844286Y-79240533D02*
X139749048Y-79288152D01*
X141130000Y-78954819D02*
X140558572Y-78954819D01*
X140844286Y-78954819D02*
X140844286Y-77954819D01*
X140844286Y-77954819D02*
X140749048Y-78097676D01*
X140749048Y-78097676D02*
X140653810Y-78192914D01*
X140653810Y-78192914D02*
X140558572Y-78240533D01*
X151716785Y-76577200D02*
X151859642Y-76624819D01*
X151859642Y-76624819D02*
X152097737Y-76624819D01*
X152097737Y-76624819D02*
X152192975Y-76577200D01*
X152192975Y-76577200D02*
X152240594Y-76529580D01*
X152240594Y-76529580D02*
X152288213Y-76434342D01*
X152288213Y-76434342D02*
X152288213Y-76339104D01*
X152288213Y-76339104D02*
X152240594Y-76243866D01*
X152240594Y-76243866D02*
X152192975Y-76196247D01*
X152192975Y-76196247D02*
X152097737Y-76148628D01*
X152097737Y-76148628D02*
X151907261Y-76101009D01*
X151907261Y-76101009D02*
X151812023Y-76053390D01*
X151812023Y-76053390D02*
X151764404Y-76005771D01*
X151764404Y-76005771D02*
X151716785Y-75910533D01*
X151716785Y-75910533D02*
X151716785Y-75815295D01*
X151716785Y-75815295D02*
X151764404Y-75720057D01*
X151764404Y-75720057D02*
X151812023Y-75672438D01*
X151812023Y-75672438D02*
X151907261Y-75624819D01*
X151907261Y-75624819D02*
X152145356Y-75624819D01*
X152145356Y-75624819D02*
X152288213Y-75672438D01*
X152859642Y-76624819D02*
X152764404Y-76577200D01*
X152764404Y-76577200D02*
X152716785Y-76529580D01*
X152716785Y-76529580D02*
X152669166Y-76434342D01*
X152669166Y-76434342D02*
X152669166Y-76148628D01*
X152669166Y-76148628D02*
X152716785Y-76053390D01*
X152716785Y-76053390D02*
X152764404Y-76005771D01*
X152764404Y-76005771D02*
X152859642Y-75958152D01*
X152859642Y-75958152D02*
X153002499Y-75958152D01*
X153002499Y-75958152D02*
X153097737Y-76005771D01*
X153097737Y-76005771D02*
X153145356Y-76053390D01*
X153145356Y-76053390D02*
X153192975Y-76148628D01*
X153192975Y-76148628D02*
X153192975Y-76434342D01*
X153192975Y-76434342D02*
X153145356Y-76529580D01*
X153145356Y-76529580D02*
X153097737Y-76577200D01*
X153097737Y-76577200D02*
X153002499Y-76624819D01*
X153002499Y-76624819D02*
X152859642Y-76624819D01*
X153764404Y-76624819D02*
X153669166Y-76577200D01*
X153669166Y-76577200D02*
X153621547Y-76481961D01*
X153621547Y-76481961D02*
X153621547Y-75624819D01*
X154573928Y-76624819D02*
X154573928Y-76101009D01*
X154573928Y-76101009D02*
X154526309Y-76005771D01*
X154526309Y-76005771D02*
X154431071Y-75958152D01*
X154431071Y-75958152D02*
X154240595Y-75958152D01*
X154240595Y-75958152D02*
X154145357Y-76005771D01*
X154573928Y-76577200D02*
X154478690Y-76624819D01*
X154478690Y-76624819D02*
X154240595Y-76624819D01*
X154240595Y-76624819D02*
X154145357Y-76577200D01*
X154145357Y-76577200D02*
X154097738Y-76481961D01*
X154097738Y-76481961D02*
X154097738Y-76386723D01*
X154097738Y-76386723D02*
X154145357Y-76291485D01*
X154145357Y-76291485D02*
X154240595Y-76243866D01*
X154240595Y-76243866D02*
X154478690Y-76243866D01*
X154478690Y-76243866D02*
X154573928Y-76196247D01*
X155050119Y-76624819D02*
X155050119Y-75958152D01*
X155050119Y-76148628D02*
X155097738Y-76053390D01*
X155097738Y-76053390D02*
X155145357Y-76005771D01*
X155145357Y-76005771D02*
X155240595Y-75958152D01*
X155240595Y-75958152D02*
X155335833Y-75958152D01*
X155669167Y-75958152D02*
X155669167Y-76958152D01*
X155669167Y-76005771D02*
X155764405Y-75958152D01*
X155764405Y-75958152D02*
X155954881Y-75958152D01*
X155954881Y-75958152D02*
X156050119Y-76005771D01*
X156050119Y-76005771D02*
X156097738Y-76053390D01*
X156097738Y-76053390D02*
X156145357Y-76148628D01*
X156145357Y-76148628D02*
X156145357Y-76434342D01*
X156145357Y-76434342D02*
X156097738Y-76529580D01*
X156097738Y-76529580D02*
X156050119Y-76577200D01*
X156050119Y-76577200D02*
X155954881Y-76624819D01*
X155954881Y-76624819D02*
X155764405Y-76624819D01*
X155764405Y-76624819D02*
X155669167Y-76577200D01*
X157002500Y-76624819D02*
X157002500Y-76101009D01*
X157002500Y-76101009D02*
X156954881Y-76005771D01*
X156954881Y-76005771D02*
X156859643Y-75958152D01*
X156859643Y-75958152D02*
X156669167Y-75958152D01*
X156669167Y-75958152D02*
X156573929Y-76005771D01*
X157002500Y-76577200D02*
X156907262Y-76624819D01*
X156907262Y-76624819D02*
X156669167Y-76624819D01*
X156669167Y-76624819D02*
X156573929Y-76577200D01*
X156573929Y-76577200D02*
X156526310Y-76481961D01*
X156526310Y-76481961D02*
X156526310Y-76386723D01*
X156526310Y-76386723D02*
X156573929Y-76291485D01*
X156573929Y-76291485D02*
X156669167Y-76243866D01*
X156669167Y-76243866D02*
X156907262Y-76243866D01*
X156907262Y-76243866D02*
X157002500Y-76196247D01*
X157478691Y-75958152D02*
X157478691Y-76624819D01*
X157478691Y-76053390D02*
X157526310Y-76005771D01*
X157526310Y-76005771D02*
X157621548Y-75958152D01*
X157621548Y-75958152D02*
X157764405Y-75958152D01*
X157764405Y-75958152D02*
X157859643Y-76005771D01*
X157859643Y-76005771D02*
X157907262Y-76101009D01*
X157907262Y-76101009D02*
X157907262Y-76624819D01*
X158764405Y-76577200D02*
X158669167Y-76624819D01*
X158669167Y-76624819D02*
X158478691Y-76624819D01*
X158478691Y-76624819D02*
X158383453Y-76577200D01*
X158383453Y-76577200D02*
X158335834Y-76481961D01*
X158335834Y-76481961D02*
X158335834Y-76101009D01*
X158335834Y-76101009D02*
X158383453Y-76005771D01*
X158383453Y-76005771D02*
X158478691Y-75958152D01*
X158478691Y-75958152D02*
X158669167Y-75958152D01*
X158669167Y-75958152D02*
X158764405Y-76005771D01*
X158764405Y-76005771D02*
X158812024Y-76101009D01*
X158812024Y-76101009D02*
X158812024Y-76196247D01*
X158812024Y-76196247D02*
X158335834Y-76291485D01*
X159383453Y-76624819D02*
X159288215Y-76577200D01*
X159288215Y-76577200D02*
X159240596Y-76481961D01*
X159240596Y-76481961D02*
X159240596Y-75624819D01*
X160288215Y-76624819D02*
X159716787Y-76624819D01*
X160002501Y-76624819D02*
X160002501Y-75624819D01*
X160002501Y-75624819D02*
X159907263Y-75767676D01*
X159907263Y-75767676D02*
X159812025Y-75862914D01*
X159812025Y-75862914D02*
X159716787Y-75910533D01*
X165333333Y-84659580D02*
X165285714Y-84707200D01*
X165285714Y-84707200D02*
X165142857Y-84754819D01*
X165142857Y-84754819D02*
X165047619Y-84754819D01*
X165047619Y-84754819D02*
X164904762Y-84707200D01*
X164904762Y-84707200D02*
X164809524Y-84611961D01*
X164809524Y-84611961D02*
X164761905Y-84516723D01*
X164761905Y-84516723D02*
X164714286Y-84326247D01*
X164714286Y-84326247D02*
X164714286Y-84183390D01*
X164714286Y-84183390D02*
X164761905Y-83992914D01*
X164761905Y-83992914D02*
X164809524Y-83897676D01*
X164809524Y-83897676D02*
X164904762Y-83802438D01*
X164904762Y-83802438D02*
X165047619Y-83754819D01*
X165047619Y-83754819D02*
X165142857Y-83754819D01*
X165142857Y-83754819D02*
X165285714Y-83802438D01*
X165285714Y-83802438D02*
X165333333Y-83850057D01*
X166285714Y-84754819D02*
X165714286Y-84754819D01*
X166000000Y-84754819D02*
X166000000Y-83754819D01*
X166000000Y-83754819D02*
X165904762Y-83897676D01*
X165904762Y-83897676D02*
X165809524Y-83992914D01*
X165809524Y-83992914D02*
X165714286Y-84040533D01*
X159261905Y-91484819D02*
X159261905Y-90484819D01*
X159261905Y-90484819D02*
X159500000Y-90484819D01*
X159500000Y-90484819D02*
X159642857Y-90532438D01*
X159642857Y-90532438D02*
X159738095Y-90627676D01*
X159738095Y-90627676D02*
X159785714Y-90722914D01*
X159785714Y-90722914D02*
X159833333Y-90913390D01*
X159833333Y-90913390D02*
X159833333Y-91056247D01*
X159833333Y-91056247D02*
X159785714Y-91246723D01*
X159785714Y-91246723D02*
X159738095Y-91341961D01*
X159738095Y-91341961D02*
X159642857Y-91437200D01*
X159642857Y-91437200D02*
X159500000Y-91484819D01*
X159500000Y-91484819D02*
X159261905Y-91484819D01*
X160785714Y-91484819D02*
X160214286Y-91484819D01*
X160500000Y-91484819D02*
X160500000Y-90484819D01*
X160500000Y-90484819D02*
X160404762Y-90627676D01*
X160404762Y-90627676D02*
X160309524Y-90722914D01*
X160309524Y-90722914D02*
X160214286Y-90770533D01*
X154658095Y-91854819D02*
X154658095Y-90854819D01*
X155229523Y-91854819D02*
X154800952Y-91283390D01*
X155229523Y-90854819D02*
X154658095Y-91426247D01*
X145698095Y-93684819D02*
X145698095Y-94494342D01*
X145698095Y-94494342D02*
X145745714Y-94589580D01*
X145745714Y-94589580D02*
X145793333Y-94637200D01*
X145793333Y-94637200D02*
X145888571Y-94684819D01*
X145888571Y-94684819D02*
X146079047Y-94684819D01*
X146079047Y-94684819D02*
X146174285Y-94637200D01*
X146174285Y-94637200D02*
X146221904Y-94589580D01*
X146221904Y-94589580D02*
X146269523Y-94494342D01*
X146269523Y-94494342D02*
X146269523Y-93684819D01*
X147269523Y-94684819D02*
X146698095Y-94684819D01*
X146983809Y-94684819D02*
X146983809Y-93684819D01*
X146983809Y-93684819D02*
X146888571Y-93827676D01*
X146888571Y-93827676D02*
X146793333Y-93922914D01*
X146793333Y-93922914D02*
X146698095Y-93970533D01*
X144833333Y-79804819D02*
X144500000Y-79328628D01*
X144261905Y-79804819D02*
X144261905Y-78804819D01*
X144261905Y-78804819D02*
X144642857Y-78804819D01*
X144642857Y-78804819D02*
X144738095Y-78852438D01*
X144738095Y-78852438D02*
X144785714Y-78900057D01*
X144785714Y-78900057D02*
X144833333Y-78995295D01*
X144833333Y-78995295D02*
X144833333Y-79138152D01*
X144833333Y-79138152D02*
X144785714Y-79233390D01*
X144785714Y-79233390D02*
X144738095Y-79281009D01*
X144738095Y-79281009D02*
X144642857Y-79328628D01*
X144642857Y-79328628D02*
X144261905Y-79328628D01*
X145214286Y-78900057D02*
X145261905Y-78852438D01*
X145261905Y-78852438D02*
X145357143Y-78804819D01*
X145357143Y-78804819D02*
X145595238Y-78804819D01*
X145595238Y-78804819D02*
X145690476Y-78852438D01*
X145690476Y-78852438D02*
X145738095Y-78900057D01*
X145738095Y-78900057D02*
X145785714Y-78995295D01*
X145785714Y-78995295D02*
X145785714Y-79090533D01*
X145785714Y-79090533D02*
X145738095Y-79233390D01*
X145738095Y-79233390D02*
X145166667Y-79804819D01*
X145166667Y-79804819D02*
X145785714Y-79804819D01*
X132904761Y-95850057D02*
X132809523Y-95802438D01*
X132809523Y-95802438D02*
X132714285Y-95707200D01*
X132714285Y-95707200D02*
X132571428Y-95564342D01*
X132571428Y-95564342D02*
X132476190Y-95516723D01*
X132476190Y-95516723D02*
X132380952Y-95516723D01*
X132428571Y-95754819D02*
X132333333Y-95707200D01*
X132333333Y-95707200D02*
X132238095Y-95611961D01*
X132238095Y-95611961D02*
X132190476Y-95421485D01*
X132190476Y-95421485D02*
X132190476Y-95088152D01*
X132190476Y-95088152D02*
X132238095Y-94897676D01*
X132238095Y-94897676D02*
X132333333Y-94802438D01*
X132333333Y-94802438D02*
X132428571Y-94754819D01*
X132428571Y-94754819D02*
X132619047Y-94754819D01*
X132619047Y-94754819D02*
X132714285Y-94802438D01*
X132714285Y-94802438D02*
X132809523Y-94897676D01*
X132809523Y-94897676D02*
X132857142Y-95088152D01*
X132857142Y-95088152D02*
X132857142Y-95421485D01*
X132857142Y-95421485D02*
X132809523Y-95611961D01*
X132809523Y-95611961D02*
X132714285Y-95707200D01*
X132714285Y-95707200D02*
X132619047Y-95754819D01*
X132619047Y-95754819D02*
X132428571Y-95754819D01*
X133809523Y-95754819D02*
X133238095Y-95754819D01*
X133523809Y-95754819D02*
X133523809Y-94754819D01*
X133523809Y-94754819D02*
X133428571Y-94897676D01*
X133428571Y-94897676D02*
X133333333Y-94992914D01*
X133333333Y-94992914D02*
X133238095Y-95040533D01*
X143420833Y-85804819D02*
X143087500Y-85328628D01*
X142849405Y-85804819D02*
X142849405Y-84804819D01*
X142849405Y-84804819D02*
X143230357Y-84804819D01*
X143230357Y-84804819D02*
X143325595Y-84852438D01*
X143325595Y-84852438D02*
X143373214Y-84900057D01*
X143373214Y-84900057D02*
X143420833Y-84995295D01*
X143420833Y-84995295D02*
X143420833Y-85138152D01*
X143420833Y-85138152D02*
X143373214Y-85233390D01*
X143373214Y-85233390D02*
X143325595Y-85281009D01*
X143325595Y-85281009D02*
X143230357Y-85328628D01*
X143230357Y-85328628D02*
X142849405Y-85328628D01*
X144277976Y-85138152D02*
X144277976Y-85804819D01*
X144039881Y-84757200D02*
X143801786Y-85471485D01*
X143801786Y-85471485D02*
X144420833Y-85471485D01*
X148333333Y-83304819D02*
X148000000Y-82828628D01*
X147761905Y-83304819D02*
X147761905Y-82304819D01*
X147761905Y-82304819D02*
X148142857Y-82304819D01*
X148142857Y-82304819D02*
X148238095Y-82352438D01*
X148238095Y-82352438D02*
X148285714Y-82400057D01*
X148285714Y-82400057D02*
X148333333Y-82495295D01*
X148333333Y-82495295D02*
X148333333Y-82638152D01*
X148333333Y-82638152D02*
X148285714Y-82733390D01*
X148285714Y-82733390D02*
X148238095Y-82781009D01*
X148238095Y-82781009D02*
X148142857Y-82828628D01*
X148142857Y-82828628D02*
X147761905Y-82828628D01*
X148666667Y-82304819D02*
X149285714Y-82304819D01*
X149285714Y-82304819D02*
X148952381Y-82685771D01*
X148952381Y-82685771D02*
X149095238Y-82685771D01*
X149095238Y-82685771D02*
X149190476Y-82733390D01*
X149190476Y-82733390D02*
X149238095Y-82781009D01*
X149238095Y-82781009D02*
X149285714Y-82876247D01*
X149285714Y-82876247D02*
X149285714Y-83114342D01*
X149285714Y-83114342D02*
X149238095Y-83209580D01*
X149238095Y-83209580D02*
X149190476Y-83257200D01*
X149190476Y-83257200D02*
X149095238Y-83304819D01*
X149095238Y-83304819D02*
X148809524Y-83304819D01*
X148809524Y-83304819D02*
X148714286Y-83257200D01*
X148714286Y-83257200D02*
X148666667Y-83209580D01*
X148223333Y-76354819D02*
X147890000Y-75878628D01*
X147651905Y-76354819D02*
X147651905Y-75354819D01*
X147651905Y-75354819D02*
X148032857Y-75354819D01*
X148032857Y-75354819D02*
X148128095Y-75402438D01*
X148128095Y-75402438D02*
X148175714Y-75450057D01*
X148175714Y-75450057D02*
X148223333Y-75545295D01*
X148223333Y-75545295D02*
X148223333Y-75688152D01*
X148223333Y-75688152D02*
X148175714Y-75783390D01*
X148175714Y-75783390D02*
X148128095Y-75831009D01*
X148128095Y-75831009D02*
X148032857Y-75878628D01*
X148032857Y-75878628D02*
X147651905Y-75878628D01*
X149175714Y-76354819D02*
X148604286Y-76354819D01*
X148890000Y-76354819D02*
X148890000Y-75354819D01*
X148890000Y-75354819D02*
X148794762Y-75497676D01*
X148794762Y-75497676D02*
X148699524Y-75592914D01*
X148699524Y-75592914D02*
X148604286Y-75640533D01*
X147794761Y-88804819D02*
X147461428Y-88328628D01*
X147223333Y-88804819D02*
X147223333Y-87804819D01*
X147223333Y-87804819D02*
X147604285Y-87804819D01*
X147604285Y-87804819D02*
X147699523Y-87852438D01*
X147699523Y-87852438D02*
X147747142Y-87900057D01*
X147747142Y-87900057D02*
X147794761Y-87995295D01*
X147794761Y-87995295D02*
X147794761Y-88138152D01*
X147794761Y-88138152D02*
X147747142Y-88233390D01*
X147747142Y-88233390D02*
X147699523Y-88281009D01*
X147699523Y-88281009D02*
X147604285Y-88328628D01*
X147604285Y-88328628D02*
X147223333Y-88328628D01*
X148080476Y-87804819D02*
X148413809Y-88804819D01*
X148413809Y-88804819D02*
X148747142Y-87804819D01*
X149604285Y-88804819D02*
X149032857Y-88804819D01*
X149318571Y-88804819D02*
X149318571Y-87804819D01*
X149318571Y-87804819D02*
X149223333Y-87947676D01*
X149223333Y-87947676D02*
X149128095Y-88042914D01*
X149128095Y-88042914D02*
X149032857Y-88090533D01*
D11*
%TO.C,Lithium-ion-battery1*%
X125350000Y-83700000D02*
G75*
G02*
X125350000Y-87300000I0J-1800000D01*
G01*
X138730000Y-91200000D02*
X138730000Y-79800000D01*
X138730000Y-79800000D02*
X128850000Y-79800000D01*
X128850000Y-91200000D02*
X138730000Y-91200000D01*
X128850000Y-90100000D02*
X128850000Y-91200000D01*
X128850000Y-80900000D02*
X125350000Y-80900000D01*
X128850000Y-79800000D02*
X128850000Y-80900000D01*
X125350000Y-90100000D02*
X128850000Y-90100000D01*
X125350000Y-80900000D02*
X125350000Y-90100000D01*
%TO.C,Solarpanel1*%
X160062500Y-86080000D02*
X160062500Y-81250000D01*
X160062500Y-79340000D02*
X160062500Y-81250000D01*
X158792500Y-79340000D02*
X158792500Y-77950000D01*
X156382500Y-86080000D02*
X160062500Y-86080000D01*
X156382500Y-85820000D02*
X156382500Y-86080000D01*
X155612500Y-86080000D02*
X155612500Y-85820000D01*
X155612500Y-86080000D02*
X151932500Y-86080000D01*
X155612500Y-85820000D02*
X156382500Y-85820000D01*
X153202500Y-79340000D02*
X153202500Y-77950000D01*
X153202500Y-79090000D02*
X158792500Y-79090000D01*
X153202500Y-78200000D02*
X158792500Y-78200000D01*
X153202500Y-77950000D02*
X158792500Y-77950000D01*
X152892500Y-79050000D02*
X151592500Y-79050000D01*
X151932500Y-81250000D02*
X151932500Y-86080000D01*
X151932500Y-79340000D02*
X160062500Y-79340000D01*
X151932500Y-79340000D02*
X151932500Y-81250000D01*
X151592500Y-79050000D02*
X151592500Y-81250000D01*
%TO.C,C1*%
X167260000Y-88760000D02*
X167260000Y-88060000D01*
X167260000Y-85240000D02*
X167260000Y-85940000D01*
X164629437Y-88760000D02*
X167260000Y-88760000D01*
X164629437Y-85240000D02*
X167260000Y-85240000D01*
X163929437Y-88060000D02*
X164629437Y-88760000D01*
X163929437Y-85940000D02*
X164629437Y-85240000D01*
X163312500Y-85377500D02*
X163312500Y-85752500D01*
X163125000Y-85565000D02*
X163500000Y-85565000D01*
%TO.C,D1*%
X163740000Y-93500000D02*
X162720000Y-93500000D01*
X162720000Y-94970000D02*
X162720000Y-92030000D01*
X162720000Y-92030000D02*
X157280000Y-92030000D01*
X158300000Y-92030000D02*
X158300000Y-94970000D01*
X158180000Y-92030000D02*
X158180000Y-94970000D01*
X158060000Y-92030000D02*
X158060000Y-94970000D01*
X157280000Y-94970000D02*
X162720000Y-94970000D01*
X157280000Y-92030000D02*
X157280000Y-94970000D01*
X156260000Y-93500000D02*
X157280000Y-93500000D01*
%TO.C,U1*%
X151580000Y-95230000D02*
X151580000Y-99871000D01*
X148311000Y-95230000D02*
X148311000Y-96740000D01*
X144610000Y-95230000D02*
X144610000Y-96740000D01*
X141340000Y-99871000D02*
X151580000Y-99871000D01*
X141340000Y-96740000D02*
X151580000Y-96740000D01*
X141340000Y-95230000D02*
X151580000Y-95230000D01*
X141340000Y-95230000D02*
X141340000Y-99871000D01*
%TO.C,R2*%
X144772936Y-81735000D02*
X145227064Y-81735000D01*
X144772936Y-80265000D02*
X145227064Y-80265000D01*
%TO.C,Q1*%
X133000000Y-96260000D02*
G75*
G02*
X134838478Y-100698478I0J-2600000D01*
G01*
X131161522Y-100698478D02*
G75*
G02*
X133000000Y-96259999I1838478J1838478D01*
G01*
X131200000Y-100710000D02*
X134800000Y-100710000D01*
%TO.C,R4*%
X143360436Y-87735000D02*
X143814564Y-87735000D01*
X143360436Y-86265000D02*
X143814564Y-86265000D01*
%TO.C,R3*%
X148272936Y-85235000D02*
X148727064Y-85235000D01*
X148272936Y-83765000D02*
X148727064Y-83765000D01*
%TO.C,R1*%
X148162936Y-78285000D02*
X148617064Y-78285000D01*
X148162936Y-76815000D02*
X148617064Y-76815000D01*
%TO.C,RV1*%
X148162936Y-90735000D02*
X148617064Y-90735000D01*
X148162936Y-89265000D02*
X148617064Y-89265000D01*
%TD*%
M02*
