%TF.GenerationSoftware,KiCad,Pcbnew,9.0.0*%
%TF.CreationDate,2025-03-25T11:32:13+05:30*%
%TF.ProjectId,solarpannel_project,736f6c61-7270-4616-9e6e-656c5f70726f,rev?*%
%TF.SameCoordinates,Original*%
%TF.FileFunction,Copper,L1,Top*%
%TF.FilePolarity,Positive*%
%FSLAX46Y46*%
G04 Gerber Fmt 4.6, Leading zero omitted, Abs format (unit mm)*
G04 Created by KiCad (PCBNEW 9.0.0) date 2025-03-25 11:32:13*
%MOMM*%
%LPD*%
G01*
G04 APERTURE LIST*
G04 Aperture macros list*
%AMRoundRect*
0 Rectangle with rounded corners*
0 $1 Rounding radius*
0 $2 $3 $4 $5 $6 $7 $8 $9 X,Y pos of 4 corners*
0 Add a 4 corners polygon primitive as box body*
4,1,4,$2,$3,$4,$5,$6,$7,$8,$9,$2,$3,0*
0 Add four circle primitives for the rounded corners*
1,1,$1+$1,$2,$3*
1,1,$1+$1,$4,$5*
1,1,$1+$1,$6,$7*
1,1,$1+$1,$8,$9*
0 Add four rect primitives between the rounded corners*
20,1,$1+$1,$2,$3,$4,$5,0*
20,1,$1+$1,$4,$5,$6,$7,0*
20,1,$1+$1,$6,$7,$8,$9,0*
20,1,$1+$1,$8,$9,$2,$3,0*%
G04 Aperture macros list end*
%TA.AperFunction,Conductor*%
%ADD10C,0.200000*%
%TD*%
%TA.AperFunction,ComponentPad*%
%ADD11C,2.590800*%
%TD*%
%TA.AperFunction,ComponentPad*%
%ADD12C,3.000000*%
%TD*%
%TA.AperFunction,ComponentPad*%
%ADD13R,3.000000X3.000000*%
%TD*%
%TA.AperFunction,SMDPad,CuDef*%
%ADD14R,2.200000X1.600000*%
%TD*%
%TA.AperFunction,ComponentPad*%
%ADD15O,2.200000X2.200000*%
%TD*%
%TA.AperFunction,ComponentPad*%
%ADD16R,2.200000X2.200000*%
%TD*%
%TA.AperFunction,ComponentPad*%
%ADD17O,1.905000X2.000000*%
%TD*%
%TA.AperFunction,ComponentPad*%
%ADD18R,1.905000X2.000000*%
%TD*%
%TA.AperFunction,SMDPad,CuDef*%
%ADD19RoundRect,0.250000X-0.262500X-0.450000X0.262500X-0.450000X0.262500X0.450000X-0.262500X0.450000X0*%
%TD*%
%TA.AperFunction,ComponentPad*%
%ADD20O,1.050000X1.500000*%
%TD*%
%TA.AperFunction,ComponentPad*%
%ADD21R,1.050000X1.500000*%
%TD*%
%TA.AperFunction,ViaPad*%
%ADD22C,0.600000*%
%TD*%
G04 APERTURE END LIST*
D10*
%TO.N,Net-(Q1-E)*%
X150000000Y-86000000D02*
X149000000Y-84500000D01*
%TD*%
D11*
%TO.P,Lithium-ion-battery1,1,Pin_1*%
%TO.N,Net-(Lithium-ion-battery1-Pin_1)*%
X136750000Y-88040000D03*
X136750000Y-82960000D03*
X129130000Y-85500000D03*
%TD*%
D12*
%TO.P,Solarpanel1,2,Pin_2*%
%TO.N,Net-(D1-A)*%
X157972500Y-81250000D03*
D13*
%TO.P,Solarpanel1,1,Pin_1*%
%TO.N,Net-(Q1-C)*%
X154092500Y-81250000D03*
%TD*%
D14*
%TO.P,C1,2*%
%TO.N,Net-(Q1-E)*%
X167000000Y-87000000D03*
%TO.P,C1,1*%
%TO.N,Net-(Lithium-ion-battery1-Pin_1)*%
X164000000Y-87000000D03*
%TD*%
D15*
%TO.P,D1,2,A*%
%TO.N,Net-(D1-A)*%
X165080000Y-93500000D03*
D16*
%TO.P,D1,1,K*%
%TO.N,Net-(D1-K)*%
X154920000Y-93500000D03*
%TD*%
D17*
%TO.P,U1,3,VI*%
%TO.N,Net-(D1-K)*%
X149000000Y-98500000D03*
%TO.P,U1,2,VO*%
%TO.N,Net-(Lithium-ion-battery1-Pin_1)*%
X146460000Y-98500000D03*
D18*
%TO.P,U1,1,ADJ*%
%TO.N,Net-(Q1-E)*%
X143920000Y-98500000D03*
%TD*%
D19*
%TO.P,R2,2*%
%TO.N,Net-(Lithium-ion-battery1-Pin_2)*%
X145912500Y-81000000D03*
%TO.P,R2,1*%
%TO.N,Net-(Q1-C)*%
X144087500Y-81000000D03*
%TD*%
D20*
%TO.P,Q1,3,E*%
%TO.N,Net-(Q1-E)*%
X134270000Y-98860000D03*
%TO.P,Q1,2,B*%
%TO.N,Net-(Q1-B)*%
X133000000Y-98860000D03*
D21*
%TO.P,Q1,1,C*%
%TO.N,Net-(Q1-C)*%
X131730000Y-98860000D03*
%TD*%
D19*
%TO.P,R4,2*%
%TO.N,Net-(R4-Pad2)*%
X144500000Y-87000000D03*
%TO.P,R4,1*%
%TO.N,Net-(Q1-E)*%
X142675000Y-87000000D03*
%TD*%
%TO.P,R3,2*%
%TO.N,Net-(Q1-E)*%
X149412500Y-84500000D03*
%TO.P,R3,1*%
%TO.N,Net-(Lithium-ion-battery1-Pin_1)*%
X147587500Y-84500000D03*
%TD*%
%TO.P,R1,2*%
%TO.N,Net-(Lithium-ion-battery1-Pin_2)*%
X149302500Y-77550000D03*
%TO.P,R1,1*%
%TO.N,Net-(Q1-B)*%
X147477500Y-77550000D03*
%TD*%
%TO.P,RV1,2,2*%
%TO.N,Net-(Lithium-ion-battery1-Pin_2)*%
X149302500Y-90000000D03*
%TO.P,RV1,1,1*%
X147477500Y-90000000D03*
%TD*%
D22*
%TO.N,Net-(Q1-E)*%
X150000000Y-86000000D03*
X147500000Y-86000000D03*
%TD*%
D10*
%TO.N,Net-(Q1-E)*%
X145255000Y-88245000D02*
X147500000Y-86000000D01*
X143920000Y-88245000D02*
X145255000Y-88245000D01*
X143920000Y-88245000D02*
X142675000Y-87000000D01*
X143920000Y-98500000D02*
X143920000Y-88245000D01*
%TO.N,Net-(Lithium-ion-battery1-Pin_2)*%
X148301500Y-78551000D02*
X149302500Y-77550000D01*
X145037840Y-78551000D02*
X148301500Y-78551000D01*
X143274000Y-80314840D02*
X145037840Y-78551000D01*
X143274000Y-81685160D02*
X143274000Y-80314840D01*
X144639840Y-83051000D02*
X143274000Y-81685160D01*
X155893500Y-83051000D02*
X144639840Y-83051000D01*
X155893500Y-76606500D02*
X155893500Y-83051000D01*
X159000000Y-73500000D02*
X155893500Y-76606500D01*
X159567100Y-73500000D02*
X159000000Y-73500000D01*
X175000000Y-88932900D02*
X159567100Y-73500000D01*
X175000000Y-94500000D02*
X175000000Y-88932900D01*
X169699000Y-99801000D02*
X175000000Y-94500000D01*
X145940783Y-99801000D02*
X169699000Y-99801000D01*
X145206500Y-92271000D02*
X145206500Y-99066717D01*
X145206500Y-99066717D02*
X145940783Y-99801000D01*
X147477500Y-90000000D02*
X145206500Y-92271000D01*
X147477500Y-90000000D02*
X149302500Y-90000000D01*
%TO.N,Net-(Q1-C)*%
X146135500Y-78952000D02*
X144087500Y-81000000D01*
X149399160Y-78952000D02*
X146135500Y-78952000D01*
X150116000Y-78235160D02*
X149399160Y-78952000D01*
X150116000Y-76864840D02*
X150116000Y-78235160D01*
X147751160Y-74500000D02*
X150116000Y-76864840D01*
X136500000Y-74500000D02*
X147751160Y-74500000D01*
X127132600Y-94262600D02*
X127132600Y-83867400D01*
X127132600Y-83867400D02*
X136500000Y-74500000D01*
X131730000Y-98860000D02*
X127132600Y-94262600D01*
%TO.N,Net-(Q1-B)*%
X133000000Y-97848860D02*
X133000000Y-98860000D01*
X127533600Y-92382460D02*
X133000000Y-97848860D01*
X127533600Y-84838749D02*
X127533600Y-92382460D01*
X131008749Y-81363600D02*
X127533600Y-84838749D01*
X139264600Y-81363600D02*
X131008749Y-81363600D01*
X142000000Y-84099000D02*
X139264600Y-81363600D01*
X142000000Y-81021740D02*
X142000000Y-84099000D01*
X145471740Y-77550000D02*
X142000000Y-81021740D01*
X147477500Y-77550000D02*
X145471740Y-77550000D01*
%TO.N,Net-(Lithium-ion-battery1-Pin_2)*%
X143589840Y-82001000D02*
X143274000Y-81685160D01*
X144911500Y-82001000D02*
X143589840Y-82001000D01*
X145912500Y-81000000D02*
X144911500Y-82001000D01*
%TO.N,Net-(Q1-E)*%
X143920000Y-97580000D02*
X144087500Y-97412500D01*
X143920000Y-98500000D02*
X143920000Y-97580000D01*
X143560000Y-98860000D02*
X143920000Y-98500000D01*
X134270000Y-98860000D02*
X143560000Y-98860000D01*
%TO.N,Net-(Lithium-ion-battery1-Pin_1)*%
X150116000Y-87028500D02*
X150087500Y-87000000D01*
X150116000Y-94844000D02*
X150116000Y-87028500D01*
X146460000Y-98500000D02*
X150116000Y-94844000D01*
%TO.N,Net-(D1-K)*%
X154000000Y-93500000D02*
X149000000Y-98500000D01*
X154920000Y-93500000D02*
X154000000Y-93500000D01*
%TO.N,Net-(D1-A)*%
X171500000Y-86000000D02*
X171500000Y-87080000D01*
X171500000Y-87080000D02*
X165080000Y-93500000D01*
X166750000Y-81250000D02*
X171500000Y-86000000D01*
X157972500Y-81250000D02*
X166750000Y-81250000D01*
%TO.N,Net-(Q1-E)*%
X164500000Y-84500000D02*
X149412500Y-84500000D01*
X167000000Y-87000000D02*
X164500000Y-84500000D01*
%TO.N,Net-(Lithium-ion-battery1-Pin_1)*%
X147587500Y-84500000D02*
X150087500Y-87000000D01*
X150087500Y-87000000D02*
X164000000Y-87000000D01*
X138290000Y-84500000D02*
X147587500Y-84500000D01*
X136750000Y-82960000D02*
X138290000Y-84500000D01*
%TO.N,Net-(Q1-C)*%
X145087500Y-80000000D02*
X144087500Y-81000000D01*
X154092500Y-81250000D02*
X152842500Y-80000000D01*
X152842500Y-80000000D02*
X145087500Y-80000000D01*
%TO.N,Net-(Lithium-ion-battery1-Pin_1)*%
X136750000Y-82960000D02*
X131670000Y-82960000D01*
X131670000Y-82960000D02*
X129130000Y-85500000D01*
X136750000Y-82960000D02*
X136750000Y-88040000D01*
%TD*%
M02*
